<svg id="레이어_1" data-name="레이어 1" xmlns="http://www.w3.org/2000/svg" xmlns:xlink="http://www.w3.org/1999/xlink" viewBox="0 0 338 60.68"><defs><style>.cls-1{fill:url(#linear-gradient);}.cls-2{fill:url(#linear-gradient-2);}.cls-3{fill:url(#linear-gradient-3);}.cls-4{fill:url(#linear-gradient-4);}.cls-5{fill:url(#linear-gradient-5);}.cls-6{fill:url(#linear-gradient-6);}.cls-7{fill:#4c4948;}</style><linearGradient id="linear-gradient" x1="66.24" y1="26.57" x2="66.23" y2="26.6" gradientUnits="userSpaceOnUse"><stop offset="0" stop-color="#008cd6"/><stop offset="0.19" stop-color="#0083ce"/><stop offset="0.49" stop-color="#006bb9"/><stop offset="0.8" stop-color="#004b9d"/><stop offset="0.88" stop-color="#00408b"/><stop offset="1" stop-color="#002b69"/></linearGradient><linearGradient id="linear-gradient-2" x1="37.98" y1="20.24" x2="31.25" y2="58.38" gradientUnits="userSpaceOnUse"><stop offset="0" stop-color="#002b69"/><stop offset="0.12" stop-color="#004390"/><stop offset="0.2" stop-color="#004ea2"/><stop offset="0.5" stop-color="#006bba"/><stop offset="0.81" stop-color="#0083ce"/><stop offset="1" stop-color="#008cd6"/></linearGradient><linearGradient id="linear-gradient-3" x1="1066.85" y1="1187.45" x2="1103.63" y2="1174.07" gradientTransform="translate(1133.84 1203.17) rotate(180)" gradientUnits="userSpaceOnUse"><stop offset="0" stop-color="#00a6e7"/><stop offset="0.19" stop-color="#009de0"/><stop offset="0.49" stop-color="#0085cd"/><stop offset="0.87" stop-color="#005dae"/><stop offset="1" stop-color="#004ea2"/></linearGradient><linearGradient id="linear-gradient-4" y1="33.85" x2="0" y2="33.89" gradientUnits="userSpaceOnUse"><stop offset="0" stop-color="#e8380d"/><stop offset="0.33" stop-color="#d62710"/><stop offset="0.8" stop-color="#b50a14"/><stop offset="0.91" stop-color="#a3060e"/><stop offset="1" stop-color="#8f0108"/></linearGradient><linearGradient id="linear-gradient-5" x1="35.37" y1="-0.09" x2="28.65" y2="38.05" gradientUnits="userSpaceOnUse"><stop offset="0" stop-color="#e8380d"/><stop offset="0.34" stop-color="#d7260e"/><stop offset="0.8" stop-color="#bb0611"/><stop offset="0.89" stop-color="#a9040d"/><stop offset="1" stop-color="#8f0108"/></linearGradient><linearGradient id="linear-gradient-6" x1="-0.75" y1="44.75" x2="36.03" y2="31.36" gradientUnits="userSpaceOnUse"><stop offset="0" stop-color="#ed6c00"/><stop offset="0.17" stop-color="#ec6302"/><stop offset="0.43" stop-color="#e84b07"/><stop offset="0.77" stop-color="#e3230f"/><stop offset="1" stop-color="#df0515"/></linearGradient></defs><title>logo</title><path class="cls-1" d="M66.24,26.57v0Z" transform="translate(0 0.11)"/><path class="cls-2" d="M66.24,45.4V26.61C65.88,25.1,60.35,22,49.7,24.14v16.6c-18,14.67-43.22,6.33-45.83,5.39C2.34,45.57.79,46,.22,47.37a2.54,2.54,0,0,0,.92,3.17c23.94,16.37,49.68,9.75,62.52.94C66.32,49.65,66.24,48,66.24,45.4Z" transform="translate(0 0.11)"/><path class="cls-3" d="M25.94,25c-2.24-1.36-2.08-4.48,5.71-7,9.14-3,19.77-1.66,26.73,1.07,5.23,2.06,7.86,5.08,7.86,7.57-.49-2.06-10.56-7.15-30.11,2.33a3.6,3.6,0,0,1-3,.11Z" transform="translate(0 0.11)"/><path class="cls-4" d="M0,33.89v0Z" transform="translate(0 0.11)"/><path class="cls-5" d="M65.1,9.92C41.16-6.45,15.42.17,2.58,9-.09,10.81,0,12.45,0,15.06V33.85c.36,1.51,5.89,4.66,16.54,2.47V19.72c18-14.67,43.22-6.33,45.82-5.39,1.54.56,3.08.15,3.66-1.24A2.54,2.54,0,0,0,65.1,9.92Z" transform="translate(0 0.11)"/><path class="cls-6" d="M40.3,35.47c2.24,1.36,2.08,4.48-5.72,7-9.13,3-19.76,1.66-26.72-1.07C2.62,39.36,0,36.34,0,33.85.49,35.91,10.56,41,30.11,31.52a3.57,3.57,0,0,1,3-.11Z" transform="translate(0 0.11)"/><path class="cls-7" d="M140.28,22.56a11.91,11.91,0,0,0,.4-3V12.17H118.2v3.06h17.27v4.49a27.41,27.41,0,0,1-.14,2.76,11,11,0,0,1-.49,2.36H114.57V27.9h12.24v5.24h-8.73v3h17.31v8.89h3.37a1.84,1.84,0,0,0,1.84-1.85V33.14H132V27.9H144.5V24.84h-5.12A7,7,0,0,0,140.28,22.56Z" transform="translate(0 0.11)"/><path class="cls-7" d="M147.08,15.23h10.6s.24,4.8-.94,7.67c-2.44,5.94-8.51,7.41-9.66,7.68v2.9c5.1-.52,11.69-3.31,14.52-9.58a23.19,23.19,0,0,0,1.57-8.43v-3.3H147.08Z" transform="translate(0 0.11)"/><path class="cls-7" d="M172.6,12.17h-5.16V45.05h3.32a1.85,1.85,0,0,0,1.84-1.85V23h5.27V19.68H172.6Z" transform="translate(0 0.11)"/><path class="cls-7" d="M258.47,23.11h6.07V36.47h3.32a1.84,1.84,0,0,0,1.84-1.85V12.17h-5.16v7.67h-6.07Z" transform="translate(0 0.11)"/><path class="cls-7" d="M332.83,20V12.17h-5.16V45.05H331a1.84,1.84,0,0,0,1.84-1.85V23.27H338V20Z" transform="translate(0 0.11)"/><rect class="cls-7" x="178.26" y="37.65" width="29.86" height="3.12"/><path class="cls-7" d="M193.17,23.65h0c3,5.1,9.53,6.82,13.38,7V27.83c-.91-.13-7-1.89-9.6-7a9.79,9.79,0,0,1-1.1-4.51V12.17h-5.36v4.19a9.8,9.8,0,0,1-1.11,4.51c-2.56,5.07-8.69,6.83-9.6,7v2.83C183.63,30.47,190.14,28.75,193.17,23.65Z" transform="translate(0 0.11)"/><path class="cls-7" d="M318.05,18.49V12.17h-5.33v6.32c0,6.29-2.85,9.94-7.17,11.74v3.22c2.06-.28,7.8-2.23,9.83-7.1,2,4.87,7.77,6.82,9.84,7.1V30.23C320.89,28.43,318.05,24.78,318.05,18.49Z" transform="translate(0 0.11)"/><path class="cls-7" d="M251.67,24.4h0c2,4.76,7.6,6.46,9.77,6.63V27.82a10.91,10.91,0,0,1-7.12-10.68V15.23h6.1V12.17H243v3.06H249v1.91a10.91,10.91,0,0,1-7.12,10.68V31C244.07,30.86,249.71,29.16,251.67,24.4Z" transform="translate(0 0.11)"/><path class="cls-7" d="M253.42,33.41H248.2v8.06a3.38,3.38,0,0,0,1.05,2.63,3.8,3.8,0,0,0,2.66.95h18.5V42h-17Z" transform="translate(0 0.11)"/><path class="cls-7" d="M234.79,12.17h-5.18v24.3H233a1.84,1.84,0,0,0,1.83-1.85V22.39h5.27V19.12h-5.27Z" transform="translate(0 0.11)"/><path class="cls-7" d="M219,33.41h-5.21v8.06a3.4,3.4,0,0,0,1,2.63,3.82,3.82,0,0,0,2.66.95H236V42H219Z" transform="translate(0 0.11)"/><path class="cls-7" d="M226.06,20.3a9.09,9.09,0,0,0-18.16,0,9.09,9.09,0,0,0,18.16,0Zm-12.79,0c0-3,1.66-5.48,3.71-5.48s3.7,2.45,3.7,5.48S219,25.77,217,25.77,213.27,23.32,213.27,20.3Z" transform="translate(0 0.11)"/><path class="cls-7" d="M299.28,24.19a11.64,11.64,0,0,0,.43-3.1V12.17H277.15v3H294.5v6.05a27.46,27.46,0,0,1-.14,2.77,8.33,8.33,0,0,1-.46,2.05h-5.52V18.84h-5.22v7.23h-9.6v3.06h29.93V26.07h-5A7.13,7.13,0,0,0,299.28,24.19Z" transform="translate(0 0.11)"/><path class="cls-7" d="M289.05,31c-4.85,0-8.78,3.39-8.78,7.57s3.93,7.56,8.78,7.56,8.78-3.38,8.78-7.56S293.9,31,289.05,31Zm0,12.05c-1.86,0-3.37-2-3.37-4.48s1.51-4.48,3.37-4.48,3.38,2,3.38,4.48S290.92,43,289.05,43Z" transform="translate(0 0.11)"/><path class="cls-7" d="M92.33,34.37H87.11v7.07a3.39,3.39,0,0,0,1,2.62,3.73,3.73,0,0,0,2.64.95h18.44V42H92.33Z" transform="translate(0 0.11)"/><path class="cls-7" d="M108.08,12.13h-5.16v24.3h3.32a1.85,1.85,0,0,0,1.84-1.85V23h5V19.72h-5Z" transform="translate(0 0.11)"/><path class="cls-7" d="M98.82,23.91a7.15,7.15,0,0,0-3-5.74H100V15.11H93.17v-3.5H88v3.5h-6.8v3.06h4.19a7.17,7.17,0,0,0-3,5.74c0,4.11,3.68,7.44,8.23,7.44S98.82,28,98.82,23.91Zm-11,0c0-2.48,1.26-4.48,2.81-4.48s2.81,2,2.81,4.48-1.26,4.48-2.81,4.48S87.77,26.39,87.77,23.91Z" transform="translate(0 0.11)"/></svg>