<svg width="349" height="125" viewBox="0 0 349 125" fill="none" xmlns="http://www.w3.org/2000/svg">
<path fill-rule="evenodd" clip-rule="evenodd" d="M33.0007 34.9L32.9007 0.0999756H8.20074L8.40075 23.8L33.0007 34.9Z" fill="#10A0F9"/>
<path d="M139.701 1H144.101V14.4H144.201L154.901 1H159.801L151.101 12L161.201 29.4H156.301L148.401 15.5L144.101 20.9V29.4H139.701V1Z" fill="#020202"/>
<path d="M163.001 1H167.401V29.4H163.001V1Z" fill="#020202"/>
<path d="M178.601 4.70003H170.401V0.900024H191.301V4.70003H183.001V29.3H178.601V4.70003Z" fill="#020202"/>
<path d="M194.201 1H203.401C209.201 1 213.501 3.1 213.501 9.2C213.501 13.6 211.201 16.2 207.601 17.3L214.401 29.3H209.401L203.001 17.9H198.501V29.3H194.101V1H194.201ZM202.801 14.3C206.901 14.3 209.101 12.6 209.101 9.2C209.101 5.8 206.901 4.6 202.801 4.6H198.601V14.3H202.801Z" fill="#020202"/>
<path d="M217.301 1H221.701V29.4H217.301V1Z" fill="#020202"/>
<path d="M231.801 25.7L234.401 22.6C236.401 24.6 239.201 25.9 241.901 25.9C245.301 25.9 247.201 24.3 247.201 21.9C247.201 19.3 245.301 18.5 242.701 17.4L238.801 15.7C236.101 14.5 233.101 12.4 233.101 8.3C233.101 3.8 237.001 0.5 242.301 0.5C245.601 0.5 248.701 1.9 250.801 4.1L248.501 6.9C246.801 5.3 244.801 4.4 242.301 4.4C239.401 4.4 237.601 5.8 237.601 8C237.601 10.5 239.801 11.4 242.101 12.3L245.901 14C249.201 15.4 251.601 17.5 251.601 21.7C251.601 26.2 247.901 29.9 241.701 29.9C237.901 29.8 234.301 28.3 231.801 25.7Z" fill="#020202"/>
<path d="M255.001 1H260.101L265.201 15.4C265.801 17.3 266.401 19.2 267.101 21.1H267.301C267.901 19.2 268.501 17.3 269.101 15.4L274.201 1H279.301V29.4H275.201V15.4C275.201 12.9 275.501 9.2 275.801 6.6H275.501L273.301 13.1L268.401 26.6H265.701L260.801 13.1L258.601 6.6H258.401C258.601 9.2 258.901 12.8 258.901 15.4V29.4H254.901V1H255.001Z" fill="#020202"/>
<path d="M290.201 1H295.301L304.601 29.4H299.901L297.501 21.3H287.801L285.401 29.4H280.901L290.201 1ZM288.901 17.7H296.501L295.401 13.9C294.401 10.8 293.601 7.7 292.801 4.5H292.601C291.801 7.7 290.901 10.9 290.001 13.9L288.901 17.7Z" fill="#020202"/>
<path d="M306.401 1H315.601C321.401 1 325.701 3.1 325.701 9.2C325.701 13.6 323.401 16.2 319.801 17.3L326.601 29.3H321.601L315.201 17.9H310.701V29.3H306.301V1H306.401ZM315.001 14.3C319.101 14.3 321.301 12.6 321.301 9.2C321.301 5.8 319.101 4.6 315.001 4.6H310.801V14.3H315.001Z" fill="#020202"/>
<path d="M334.501 4.70003H326.301V0.900024H347.201V4.70003H338.901V29.3H334.501V4.70003Z" fill="#020202"/>
<path d="M200.901 92.8C203.101 95.9 204.301 99.7 204.301 104.3C204.301 110.7 201.901 115.7 197.201 119.1C192.501 122.6 185.601 124.3 176.601 124.3H140.801V50.9H174.601C183.001 50.9 189.501 52.6 194.001 56C198.501 59.4 200.801 64.1 200.801 69.9C200.801 73.5 200.001 76.6 198.401 79.4C196.801 82.2 194.501 84.4 191.601 86C195.601 87.5 198.701 89.7 200.901 92.8ZM156.801 63.7V81H172.701C176.701 81 179.601 80.3 181.701 78.8C183.701 77.3 184.801 75.2 184.801 72.3C184.801 69.4 183.801 67.3 181.701 65.9C179.701 64.5 176.701 63.8 172.701 63.8H156.801V63.7ZM185.001 109.3C187.101 107.8 188.201 105.6 188.201 102.5C188.201 96.4 184.001 93.4 175.501 93.4H156.801V111.5H175.501C179.701 111.5 182.801 110.8 185.001 109.3Z" fill="#161616"/>
<path d="M235.001 122.2C233.801 123.1 232.401 123.8 230.701 124.2C229.001 124.7 227.201 124.9 225.401 124.9C220.601 124.9 216.801 123.6 214.201 121C211.601 118.4 210.201 114.5 210.201 109.4V91.6H203.901V82H210.201V71.5H222.001V82H232.101V91.6H222.001V109.2C222.001 111 222.401 112.4 223.301 113.4C224.201 114.4 225.401 114.9 227.001 114.9C228.901 114.9 230.501 114.4 231.801 113.3L235.001 122.2Z" fill="#161616"/>
<path d="M244.401 122.1C241.001 120.2 238.301 117.6 236.401 114.2C234.501 110.8 233.501 107 233.501 102.7C233.501 98.4 234.501 94.6 236.401 91.2C238.301 87.8 241.001 85.2 244.401 83.3C247.801 81.4 251.701 80.4 255.901 80.4C260.201 80.4 264.001 81.4 267.401 83.3C270.801 85.2 273.401 87.8 275.301 91.2C277.201 94.6 278.201 98.4 278.201 102.7C278.201 107 277.201 110.8 275.301 114.2C273.401 117.6 270.701 120.2 267.401 122.1C264.001 124 260.201 125 255.901 125C251.701 124.9 247.801 124 244.401 122.1ZM263.401 111.4C265.301 109.2 266.301 106.3 266.301 102.7C266.301 99.1 265.301 96.2 263.401 94C261.501 91.8 259.001 90.7 255.901 90.7C252.801 90.7 250.401 91.8 248.401 94C246.401 96.2 245.401 99.1 245.401 102.7C245.401 106.3 246.401 109.2 248.401 111.4C250.401 113.6 252.901 114.7 255.901 114.7C258.901 114.7 261.501 113.6 263.401 111.4Z" fill="#161616"/>
<path d="M345.201 92.8C347.401 95.9 348.601 99.7 348.601 104.3C348.601 110.7 346.201 115.7 341.501 119.1C336.801 122.6 329.901 124.3 320.901 124.3H285.101V50.9H318.901C327.301 50.9 333.801 52.6 338.301 56C342.801 59.4 345.101 64.1 345.101 69.9C345.101 73.5 344.301 76.6 342.701 79.4C341.101 82.2 338.801 84.4 335.901 86C339.901 87.5 342.901 89.7 345.201 92.8ZM301.001 63.7V81H316.901C320.901 81 323.801 80.3 325.901 78.8C327.901 77.3 329.001 75.2 329.001 72.3C329.001 69.4 328.001 67.3 325.901 65.9C323.901 64.5 320.901 63.8 316.901 63.8H301.001V63.7ZM329.201 109.3C331.301 107.8 332.401 105.6 332.401 102.5C332.401 96.4 328.201 93.4 319.701 93.4H301.001V111.5H319.701C323.901 111.5 327.101 110.8 329.201 109.3Z" fill="#161616"/>
<path fill-rule="evenodd" clip-rule="evenodd" d="M15.5007 15.0001L47.8007 47.7L33.0007 65.7L26.2007 58.8L26.5007 124L0.400737 123.9L0.000737047 20.6C-0.099263 13 10.0007 9.40005 15.5007 15.0001ZM67.5007 69.9001L123.501 124.3L90.9007 124.2L52.2007 87.5001L67.5007 69.9001Z" fill="url(#paint0_linear_70_181)"/>
<path fill-rule="evenodd" clip-rule="evenodd" d="M8.20074 12.3C10.8007 12.1 13.5007 12.9 15.5007 15L33.0007 32.7L33.1007 65.7L26.3007 58.8L26.6007 99.1C26.6007 99.1 12.7007 100.7 8.30074 86.3" fill="#035E6D"/>
<path fill-rule="evenodd" clip-rule="evenodd" d="M26.4007 77.1L26.5007 99.1C26.5007 99.1 27.6007 99.2 29.4007 99.1C34.7007 98.9 37.9007 98.2 42.1007 93.9L125.101 0L93.1007 0.1L26.4007 77.1Z" fill="url(#paint1_linear_70_181)"/>
<path d="M346.901 35.2H139.601V36.9H346.901V35.2Z" fill="#C6C6C6"/>
<defs>
<linearGradient id="paint0_linear_70_181" x1="-0.034663" y1="68.304" x2="123.584" y2="68.304" gradientUnits="userSpaceOnUse">
<stop stop-color="#A0D650"/>
<stop offset="1" stop-color="#249983"/>
</linearGradient>
<linearGradient id="paint1_linear_70_181" x1="26.3682" y1="49.5386" x2="125.156" y2="49.5386" gradientUnits="userSpaceOnUse">
<stop stop-color="#0436B2"/>
<stop offset="1" stop-color="#68D3FF"/>
</linearGradient>
</defs>
</svg>
