<svg width="37" height="10" viewBox="0 0 37 10" fill="none" xmlns="http://www.w3.org/2000/svg">
<path d="M6.97727 0.272727V9H5.95455L1.19886 2.14773H1.11364V9H0.0568182V0.272727H1.07955L5.85227 7.14205H5.9375V0.272727H6.97727ZM16.4556 4.63636C16.4556 5.55682 16.2894 6.35227 15.957 7.02273C15.6246 7.69318 15.1687 8.21023 14.5891 8.57386C14.0096 8.9375 13.3477 9.11932 12.6033 9.11932C11.859 9.11932 11.1971 8.9375 10.6175 8.57386C10.038 8.21023 9.58203 7.69318 9.24964 7.02273C8.91726 6.35227 8.75107 5.55682 8.75107 4.63636C8.75107 3.71591 8.91726 2.92045 9.24964 2.25C9.58203 1.57955 10.038 1.0625 10.6175 0.698864C11.1971 0.335227 11.859 0.153409 12.6033 0.153409C13.3477 0.153409 14.0096 0.335227 14.5891 0.698864C15.1687 1.0625 15.6246 1.57955 15.957 2.25C16.2894 2.92045 16.4556 3.71591 16.4556 4.63636ZM15.4329 4.63636C15.4329 3.88068 15.3065 3.2429 15.0536 2.72301C14.8036 2.20312 14.4641 1.80966 14.0352 1.54261C13.609 1.27557 13.1317 1.14205 12.6033 1.14205C12.0749 1.14205 11.5962 1.27557 11.1673 1.54261C10.7411 1.80966 10.4016 2.20312 10.1488 2.72301C9.89879 3.2429 9.77379 3.88068 9.77379 4.63636C9.77379 5.39205 9.89879 6.02983 10.1488 6.54972C10.4016 7.0696 10.7411 7.46307 11.1673 7.73011C11.5962 7.99716 12.0749 8.13068 12.6033 8.13068C13.1317 8.13068 13.609 7.99716 14.0352 7.73011C14.4641 7.46307 14.8036 7.0696 15.0536 6.54972C15.3065 6.02983 15.4329 5.39205 15.4329 4.63636ZM18.1804 0.272727L20.7713 7.61932H20.8736L23.4645 0.272727H24.5724L21.3679 9H20.277L17.0724 0.272727H18.1804ZM27.4233 9H25.1562L28.1009 0.272727H30.9091L33.8537 9H31.5866L29.5369 2.47159H29.4688L27.4233 9ZM27.1207 5.56534H31.8594V7.16761H27.1207V5.56534ZM36.9027 0.272727V9H34.7933V0.272727H36.9027Z" fill="white"/>
</svg>
