<svg width="379" height="379" viewBox="0 0 379 379" fill="none" xmlns="http://www.w3.org/2000/svg">
<path d="M318.721 257.847C321.712 257.847 324.581 259.038 326.696 261.158C328.812 263.279 330 266.155 330 269.155V325.693C330 328.692 328.812 331.568 326.696 333.688C324.581 335.809 321.712 337 318.721 337H273.601C270.609 337 267.74 335.809 265.625 333.688C263.51 331.568 262.321 328.692 262.321 325.693V269.155C262.321 266.155 263.51 263.279 265.625 261.158C267.74 259.038 270.609 257.847 273.601 257.847H318.721ZM104.4 144.769C107.392 144.769 110.261 145.961 112.377 148.081C114.492 150.202 115.68 153.077 115.68 156.076V223.924C115.68 226.923 114.492 229.799 112.377 231.92C110.261 234.04 107.392 235.231 104.4 235.231H59.28C56.2884 235.231 53.4193 234.04 51.3038 231.92C49.1884 229.799 48 226.923 48 223.924V156.076C48 153.077 49.1884 150.202 51.3038 148.081C53.4193 145.961 56.2884 144.769 59.28 144.769H104.4ZM318.721 149.45C321.712 149.45 324.581 150.642 326.696 152.763C328.812 154.884 330 157.76 330 160.759V217.297C330 220.296 328.812 223.173 326.696 225.293C324.581 227.414 321.712 228.605 318.721 228.605H273.601C270.609 228.605 267.74 227.414 265.625 225.293C263.51 223.173 262.321 220.296 262.321 217.297V160.759C262.321 157.76 263.51 154.884 265.625 152.763C267.74 150.642 270.609 149.45 273.601 149.45H318.721ZM318.721 43C321.712 43 324.581 44.1913 326.696 46.3119C328.812 48.4326 330 51.3087 330 54.3077V110.846C330 113.845 328.812 116.721 326.696 118.842C324.581 120.963 321.712 122.154 318.721 122.154H273.601C270.609 122.154 267.74 120.963 265.625 118.842C263.51 116.721 262.321 113.845 262.321 110.846V54.3077C262.321 51.3087 263.51 48.4326 265.625 46.3119C267.74 44.1913 270.609 43 273.601 43H318.721Z" fill="white"/>
<path d="M318.667 257.847C321.673 257.847 324.556 259.038 326.681 261.158C328.806 263.279 330 266.155 330 269.155V325.693C330 328.692 328.806 331.568 326.681 333.688C324.556 335.809 321.673 337 318.667 337H273.333C270.327 337 267.444 335.809 265.319 333.688C263.194 331.568 262 328.692 262 325.693V269.155C262 266.155 263.194 263.279 265.319 261.158C267.444 259.038 270.327 257.847 273.333 257.847H318.667ZM318.667 269.155H273.333V325.693H318.667V269.155ZM318.667 149.45C321.673 149.45 324.556 150.642 326.681 152.763C328.806 154.884 330 157.76 330 160.759V217.297C330 220.296 328.806 223.173 326.681 225.293C324.556 227.414 321.673 228.605 318.667 228.605H273.333C270.327 228.605 267.444 227.414 265.319 225.293C263.194 223.173 262 220.296 262 217.297V160.759C262 157.76 263.194 154.884 265.319 152.763C267.444 150.642 270.327 149.45 273.333 149.45H318.667ZM318.667 160.759H273.333V217.297H318.667V160.759ZM318.667 43C321.673 43 324.556 44.1913 326.681 46.3119C328.806 48.4326 330 51.3087 330 54.3077V110.846C330 113.845 328.806 116.721 326.681 118.842C324.556 120.963 321.673 122.154 318.667 122.154H273.333C270.327 122.154 267.444 120.963 265.319 118.842C263.194 116.721 262 113.845 262 110.846V54.3077C262 51.3087 263.194 48.4326 265.319 46.3119C267.444 44.1913 270.327 43 273.333 43H318.667ZM318.667 54.3077H273.333V110.846H318.667V54.3077Z" fill="#3B97D3"/>
<path d="M104.667 145C107.672 145 110.555 146.198 112.681 148.331C114.806 150.464 116 153.357 116 156.374V224.626C116 227.643 114.806 230.536 112.681 232.669C110.555 234.802 107.672 236 104.667 236H59.3333C56.3276 236 53.4449 234.802 51.3194 232.669C49.194 230.536 48 227.643 48 224.626V156.374C48 153.357 49.194 150.464 51.3194 148.331C53.4449 146.198 56.3276 145 59.3333 145H104.667ZM104.667 156.374H59.3333V224.626H104.667V156.374Z" fill="#5D6D7E"/>
<path d="M253.629 87.6274C253.892 88.3156 254.016 89.0485 253.994 89.7844C253.971 90.5203 253.804 91.2446 253.501 91.916C253.197 92.5875 252.764 93.1929 252.226 93.6976C251.686 94.2023 251.053 94.5966 250.36 94.8577C231.738 101.875 215.562 114.117 203.799 130.1C192.036 146.083 185.189 165.118 184.092 184.897H248.355C249.763 184.894 251.121 185.416 252.162 186.359C253.202 187.303 253.85 188.6 253.977 189.995C254.104 191.39 253.701 192.781 252.849 193.896C251.996 195.011 250.754 195.767 249.369 196.017L248.355 196.106H184.08C185.175 215.884 192.02 234.922 203.785 250.905C215.548 266.889 231.725 279.131 250.349 286.145C251.748 286.671 252.879 287.729 253.495 289.085C254.11 290.441 254.159 291.985 253.629 293.375C253.1 294.767 252.037 295.892 250.673 296.504C249.31 297.116 247.759 297.163 246.36 296.638C231.252 290.943 217.533 282.123 206.107 270.758C194.683 259.396 185.816 245.75 180.09 230.723C175.854 219.634 173.395 207.954 172.799 196.106H133.645C132.237 196.109 130.878 195.587 129.838 194.644C128.798 193.7 128.15 192.403 128.023 191.008C127.895 189.613 128.298 188.221 129.152 187.107C130.004 185.992 131.245 185.235 132.631 184.986L133.645 184.897H172.787C173.888 162.838 181.434 141.579 194.5 123.724C207.566 105.867 225.585 92.189 246.349 84.3652C247.041 84.1039 247.777 83.9807 248.517 84.0025C249.257 84.0244 249.985 84.1912 250.66 84.4931C251.336 84.7948 251.944 85.2261 252.451 85.7619C252.959 86.2978 253.355 86.9279 253.618 87.6162L253.629 87.6274Z" fill="#7A8A9B"/>
</svg>
