<svg width="180" height="56" viewBox="0 0 180 56" fill="none" xmlns="http://www.w3.org/2000/svg">
<g clip-path="url(#clip0_166_1436)">
<path fill-rule="evenodd" clip-rule="evenodd" d="M126.79 26.3308H128.149C130.687 26.3308 132.415 26.0164 133.34 25.3807C134.262 24.745 134.724 23.6489 134.724 22.1007C134.724 20.7918 134.339 19.8724 133.563 19.3438C132.787 18.8152 131.283 18.5509 129.063 18.5509H127.759L126.79 26.3308ZM124.865 41.7014H120.829L124.216 14.6992H129.556C131.614 14.6992 133.094 14.8244 133.997 15.0706C134.898 15.3155 135.704 15.7314 136.408 16.3225C137.184 16.9652 137.773 17.758 138.189 18.7151C138.597 19.6651 138.803 20.7348 138.803 21.9116C138.803 23.3026 138.562 24.5489 138.086 25.6506C137.611 26.7522 136.925 27.6717 136.017 28.4145C135.247 29.0502 134.333 29.5022 133.292 29.7735C132.246 30.0448 130.627 30.1824 128.443 30.1824H127.283H126.315L124.865 41.7014ZM133.495 41.7014L148.43 13.6421L157.855 41.7014H153.663L151.564 35.318H141.296L137.892 41.7014H133.495ZM142.914 31.7307H150.457L148.467 25.0525C148.371 24.7381 148.273 24.3097 148.165 23.7811C148.057 23.2525 147.931 22.5598 147.781 21.6988C147.521 22.34 147.264 22.9437 147.01 23.5168C146.758 24.0899 146.511 24.6254 146.265 25.129L142.914 31.7307ZM155.592 14.6992H159.959L164.26 23.756C164.392 24.0022 164.615 24.5434 164.934 25.3807C165.06 25.7076 165.162 25.9594 165.228 26.136C165.409 25.8022 165.613 25.4433 165.849 25.0525C166.082 24.6685 166.384 24.197 166.744 23.6434L172.633 14.6992H177.246L166.919 29.6914L165.409 41.7014H161.336L162.889 29.5468L155.592 14.6992Z" fill="white"/>
<path d="M64.9172 42.2074L76.0418 21.9114H69.3011L70.3464 15.1094H87.0561L76.0418 35.2525H82.9257L81.8624 42.2074H64.9172ZM86.08 42.2074L90.1735 15.1094H97.3848L93.2841 42.2074H86.08ZM98.2918 42.2074L102.392 15.1094H109.597L107.894 26.428L113.594 15.1094H120.938L113.771 27.62L117.025 42.2074H109.205L107.381 29.8804L105.509 42.2074H98.2918Z" fill="white"/>
<path fill-rule="evenodd" clip-rule="evenodd" d="M43.7881 15.2769L31.7862 22.7868L31.2001 36.8053L30.5338 22.8314L18.6121 15.2769L31.2001 21.7839L43.7881 15.2769Z" fill="white"/>
<path fill-rule="evenodd" clip-rule="evenodd" d="M26.8979 52.6974L31.2 47.2616L35.5008 52.6974L44.7135 30.1829L59.8796 11.0149L52.9502 10.0523L55.5691 3.65234L31.2 7.03385L6.82963 3.65234L9.44982 10.0523L2.51904 11.0149L17.685 30.1829L26.8979 52.6974ZM31.5029 46.8792L43.3894 31.8562L43.6457 31.5321L35.3669 51.763L31.5029 46.8792ZM52.4615 9.98557L33.3553 7.33292L32.9172 7.2731L54.8152 4.23378L52.4615 9.98557ZM9.63294 10.5044L16.8637 28.1757L17.0356 28.5944L3.40511 11.3682L9.63294 10.5044ZM30.8957 46.8792L19.0092 31.8562L18.7528 31.5321L27.0317 51.763L30.8957 46.8792ZM9.93721 9.98557L29.0433 7.33292L29.4814 7.2731L7.58331 4.23378L9.93721 9.98557ZM52.7643 10.5044L45.5349 28.1757L45.3629 28.5944L58.9937 11.3682L52.7643 10.5044ZM31.2 46.495L18.1034 29.945L10.1218 10.4362L31.2 7.51097L52.2769 10.4362L44.2951 29.945L31.2 46.495Z" fill="white"/>
</g>
<defs>
<clipPath id="clip0_166_1436">
<rect width="175.068" height="49.1987" fill="white" transform="translate(2.46582 3.65234)"/>
</clipPath>
</defs>
</svg>
