<?xml version="1.0" encoding="UTF-8"?>
<svg id="Layer_1" data-name="Layer 1" xmlns="http://www.w3.org/2000/svg" version="1.1" viewBox="0 0 350 202.2">
  <defs>
    <style>
      .cls-1 {
        isolation: isolate;
      }

      .cls-2 {
        fill: #1a5280;
      }

      .cls-2, .cls-3 {
        stroke-width: 0px;
      }

      .cls-3 {
        fill: #595959;
      }
    </style>
  </defs>
  <g class="cls-1">
    <path class="cls-2" d="M31,57h26.7c8.4,0,15.7,1.5,21.9,4.6s11,7.5,14.4,13.2,5.1,12.5,5.1,20.2c0,12.8-3.7,22.4-11.2,29-7.4,6.6-17.8,9.8-31.1,9.8h-25.8V57ZM57.8,119.9c7.8,0,13.9-2.2,18-6.6,4.2-4.4,6.3-10.5,6.3-18.3s-.9-8.8-2.8-12.4c-1.8-3.7-4.5-6.5-8-8.6s-7.7-3.1-12.4-3.1h-11.1v49h10Z"/>
    <path class="cls-2" d="M105,57h53.4v14h-36.6v17.8h27v13.4h-27v17.7h36.6v14h-53.4s0-76.9,0-76.9Z"/>
    <path class="cls-2" d="M163.2,57h53.4v14.1h-36.6v17.9h26.9v12.9h-26.9v32h-16.7V57h0Z"/>
    <path class="cls-2" d="M220.3,57h16.7v76.9h-16.7V57Z"/>
  </g>
  <g class="cls-1">
    <path class="cls-3" d="M32.3,144.4h4.4c1.5,0,2.8.3,3.9.8,1.1.6,1.9,1.3,2.5,2.4s.9,2.2.9,3.6c0,2.3-.7,4-2,5.2-1.3,1.2-3.2,1.8-5.5,1.8h-4.2s0-13.8,0-13.8ZM36.4,156.5c1.8,0,3.2-.5,4.1-1.4.9-.9,1.4-2.2,1.4-3.9s-.5-2.8-1.3-3.7c-.9-.9-2.2-1.4-3.9-1.4h-2.4v10.4h2.1Z"/>
    <path class="cls-3" d="M44.9,146.5c-.2-.2-.3-.5-.3-.8s.1-.6.3-.8c.2-.2.5-.3.8-.3s.6.1.9.3c.2.2.3.5.3.8s-.1.6-.3.8c-.2.2-.5.3-.9.3s-.6-.1-.8-.3ZM44.7,148.7h2v9.5h-2v-9.5Z"/>
    <path class="cls-3" d="M51,162.5c-.6-.1-1.1-.3-1.5-.5v-1.6c1,.4,2.1.7,3.4.7s2.1-.3,2.7-.8.8-1.3.8-2.4v-1c-.9,1-2.1,1.6-3.8,1.6s-1.8-.2-2.6-.6-1.4-1-1.8-1.8-.6-1.6-.6-2.6.2-1.9.6-2.6c.4-.8,1-1.3,1.8-1.8.8-.4,1.6-.6,2.6-.6s1.6.1,2.2.4,1.2.7,1.7,1.3v-1.4h1.9v9c0,1.6-.5,2.9-1.3,3.7-.9.9-2.3,1.3-4.1,1.3s-1.3,0-1.9-.2h-.1ZM55.1,156.2c.6-.4,1-1,1.3-1.7v-2.1c-.2-.7-.7-1.3-1.3-1.7-.6-.4-1.3-.6-2.1-.6s-1.2.1-1.7.4c-.5.3-.9.7-1.2,1.2-.3.5-.4,1.1-.4,1.8s.1,1.3.4,1.8.7.9,1.2,1.2,1.1.4,1.7.4,1.5-.2,2.2-.7h-.1Z"/>
    <path class="cls-3" d="M59.7,146.5c-.2-.2-.3-.5-.3-.8s0-.6.3-.8.5-.3.8-.3.6.1.9.3c.2.2.3.5.3.8s0,.6-.3.8-.5.3-.9.3-.6-.1-.8-.3ZM59.5,148.7h2v9.5h-2v-9.5Z"/>
    <path class="cls-3" d="M64.1,157.6c-.5-.6-.8-1.3-.8-2.3v-5h-1.4v-1.5h1.4v-2.8h2v2.8h2.3v1.5h-2.3v4.9c0,.6,0,1.1.4,1.3.2.3.7.4,1.3.4s.8,0,1.1-.3v1.6c-.5.2-1.1.3-1.9.3s-1.7-.3-2.2-.8h.1Z"/>
    <path class="cls-3" d="M68.8,157.6c-.7-.6-1-1.4-1-2.4s.3-1.9,1-2.4c.7-.6,1.6-.9,2.8-.9s2.4.3,3.3.8v-.5c0-.7-.2-1.3-.7-1.7s-1.2-.5-2.1-.5-1.1,0-1.7.2c-.5.1-1,.3-1.5.5v-1.6c.4-.2.9-.3,1.5-.4s1.2-.2,1.8-.2c1.6,0,2.7.3,3.5,1s1.1,1.6,1.1,2.9v5.9h-1.9v-1.1c-.4.4-.9.8-1.4,1-.6.2-1.2.3-2,.3s-2.1-.3-2.7-.9h0ZM73.8,156.5c.5-.2.9-.6,1.1-1v-1.3c-.9-.6-1.8-.8-2.9-.8s-1.3.1-1.7.4c-.4.3-.6.7-.6,1.3,0,1.2.8,1.7,2.3,1.7s1.2-.1,1.7-.4h.1Z"/>
    <path class="cls-3" d="M77.8,143.6h2v14.6h-2v-14.6Z"/>
    <path class="cls-3" d="M86.5,144.4h9.1v1.7h-7.1v4.4h5.3v1.7h-5.3v4.4h7.1v1.7h-9.1v-13.8h0Z"/>
    <path class="cls-3" d="M97.8,157.8c-.8-.4-1.4-1-1.9-1.7-.5-.8-.7-1.7-.7-2.7s.2-1.9.7-2.7,1.1-1.3,1.9-1.7,1.8-.6,2.8-.6,2.6.3,3.5.8v1.6c-.9-.6-1.9-.9-3.3-.9s-1.9.3-2.6.9c-.7.6-1,1.4-1,2.6s.3,2,1,2.6,1.5.9,2.6.9,2.5-.3,3.4-.9v1.6c-.5.3-1,.5-1.6.7s-1.3.2-2.1.2-2-.2-2.8-.6h0Z"/>
    <path class="cls-3" d="M106.7,157.8c-.8-.4-1.4-1-1.9-1.7-.5-.8-.7-1.6-.7-2.7s.2-1.9.7-2.7c.4-.8,1.1-1.3,1.9-1.8s1.8-.6,2.8-.6,2,.2,2.8.6,1.4,1,1.9,1.8.7,1.6.7,2.7-.2,1.9-.7,2.7-1.1,1.3-1.9,1.7-1.8.6-2.8.6-2-.2-2.8-.6ZM111.9,155.9c.6-.6.9-1.5.9-2.5s-.3-1.9-.9-2.5-1.4-.9-2.4-.9-1.8.3-2.4.9-.9,1.5-.9,2.5.3,1.9.9,2.5,1.4.9,2.4.9,1.8-.3,2.4-.9Z"/>
    <path class="cls-3" d="M115.5,148.7h1.9v1.4c.4-.6,1-1,1.6-1.3.7-.3,1.3-.4,2-.4,1.3,0,2.2.3,2.8,1s.9,1.6.9,2.7v6h-2v-5.9c0-1.5-.7-2.3-2.2-2.3s-1.2.1-1.8.4c-.5.3-1,.7-1.4,1.3v6.4h-2v-9.5l.2.2Z"/>
    <path class="cls-3" d="M127.6,157.8c-.8-.4-1.4-1-1.9-1.7-.5-.8-.7-1.6-.7-2.7s.2-1.9.7-2.7c.4-.8,1.1-1.3,1.9-1.8s1.8-.6,2.8-.6,2,.2,2.8.6,1.4,1,1.9,1.8.7,1.6.7,2.7-.2,1.9-.7,2.7-1.1,1.3-1.9,1.7-1.8.6-2.8.6-2-.2-2.8-.6ZM132.8,155.9c.6-.6.9-1.5.9-2.5s-.3-1.9-.9-2.5-1.4-.9-2.4-.9-1.8.3-2.4.9-.9,1.5-.9,2.5.3,1.9.9,2.5,1.4.9,2.4.9,1.8-.3,2.4-.9Z"/>
    <path class="cls-3" d="M136.4,148.7h1.9v1.4c.4-.6,1-1,1.5-1.2.6-.3,1.1-.4,1.8-.4s1.4.1,1.8.4c.4.3.8.6,1,1.2.4-.5.9-.9,1.5-1.2s1.2-.4,1.8-.4c1.2,0,2,.3,2.5.9.5.6.8,1.4.8,2.6v6.3h-1.9v-6c0-.8,0-1.3-.4-1.6s-.8-.5-1.5-.5c-1,0-1.8.4-2.4,1.3v6.9h-1.9v-6c0-.8,0-1.3-.4-1.6s-.7-.5-1.4-.5c-1,0-1.9.6-2.7,1.7v6.5h-2v-9.8Z"/>
    <path class="cls-3" d="M152.2,146.5c-.2-.2-.3-.5-.3-.8s0-.6.3-.8c.2-.2.5-.3.8-.3s.6.1.9.3c.2.2.3.5.3.8s-.1.6-.3.8-.5.3-.9.3-.6-.1-.8-.3ZM152.1,148.7h2v9.5h-2v-9.5Z"/>
    <path class="cls-3" d="M157.4,157.8c-.8-.4-1.4-1-1.9-1.7-.5-.8-.7-1.7-.7-2.7s.2-1.9.7-2.7,1.1-1.3,1.9-1.7c.8-.4,1.8-.6,2.8-.6s2.6.3,3.5.8v1.6c-.9-.6-1.9-.9-3.3-.9s-1.9.3-2.6.9c-.7.6-1,1.4-1,2.6s.3,2,1,2.6,1.5.9,2.6.9,2.5-.3,3.4-.9v1.6c-.5.3-1,.5-1.6.7-.6.1-1.3.2-2.1.2s-2-.2-2.8-.6h.1Z"/>
    <path class="cls-3" d="M171.1,157.5c-.9-.7-1.4-1.6-1.4-2.7s.2-1.6.7-2.3c.5-.6,1.3-1.3,2.4-1.9-.7-.6-1.1-1.2-1.4-1.6-.3-.5-.5-1-.5-1.6,0-1,.3-1.8,1-2.3.7-.6,1.5-.9,2.6-.9s1.3.1,1.9.4c.5.3,1,.7,1.3,1.2s.5,1,.5,1.6-.2,1.3-.6,1.9c-.4.5-1.1,1.1-2,1.7l3.7,3.5c.2-.4.4-.8.5-1.3,0-.5.1-1.2.1-1.9h1.8c0,1,0,1.9-.2,2.5-.2.7-.4,1.3-.8,2l2.6,2.5h-2.4l-1.4-1.3c-.6.6-1.3,1-2.1,1.2s-1.7.4-2.7.4c-1.5,0-2.7-.3-3.6-1h0ZM176.8,156.6c.6-.2,1.1-.6,1.5-1l-4.1-4c-.9.4-1.5.9-1.9,1.3-.4.5-.6,1-.6,1.7s.3,1.3.9,1.7c.6.4,1.3.6,2.2.6s1.4-.1,2-.3h0ZM176,148.6c.3-.4.5-.8.5-1.3s-.2-1-.5-1.3-.8-.5-1.3-.5-1,.2-1.4.5-.5.7-.5,1.3.1.8.4,1.1c.2.3.7.8,1.3,1.3.7-.4,1.3-.8,1.6-1.2h-.1Z"/>
    <path class="cls-3" d="M189.5,144.4h9.1v1.7h-7.1v4.4h5.3v1.6h-5.3v6.1h-2v-13.8Z"/>
    <path class="cls-3" d="M198.4,146.5c-.2-.2-.3-.5-.3-.8s.1-.6.3-.8.5-.3.8-.3.6.1.9.3c.2.2.3.5.3.8s-.1.6-.3.8-.5.3-.9.3-.6-.1-.8-.3ZM198.3,148.7h2v9.5h-2v-9.5Z"/>
    <path class="cls-3" d="M201.5,148.7h1.9v1.4c.4-.6,1-1,1.6-1.3.7-.3,1.3-.4,2-.4,1.3,0,2.2.3,2.8,1s.9,1.6.9,2.7v6h-2v-5.9c0-1.5-.7-2.3-2.2-2.3s-1.2.1-1.8.4c-.5.3-1,.7-1.4,1.3v6.4h-2v-9.5l.2.2Z"/>
    <path class="cls-3" d="M212,157.6c-.7-.6-1-1.4-1-2.4s.3-1.9,1-2.4c.7-.6,1.6-.9,2.8-.9s2.4.3,3.3.8v-.5c0-.7-.2-1.3-.7-1.7s-1.2-.5-2.1-.5-1.1,0-1.7.2-1,.3-1.5.5v-1.6c.4-.2.9-.3,1.5-.4.6-.1,1.2-.2,1.8-.2,1.6,0,2.7.3,3.5,1s1.1,1.6,1.1,2.9v5.9h-1.9v-1.1c-.4.4-.9.8-1.4,1-.6.2-1.2.3-2,.3s-2.1-.3-2.7-.9h0ZM217,156.5c.5-.2.9-.6,1.1-1v-1.3c-.9-.6-1.8-.8-2.9-.8s-1.3.1-1.7.4c-.4.3-.6.7-.6,1.3,0,1.2.8,1.7,2.3,1.7s1.2-.1,1.7-.4h0Z"/>
    <path class="cls-3" d="M221,148.7h1.9v1.4c.4-.6,1-1,1.6-1.3.7-.3,1.3-.4,2-.4,1.3,0,2.2.3,2.8,1s.9,1.6.9,2.7v6h-2v-5.9c0-1.5-.7-2.3-2.2-2.3s-1.2.1-1.8.4c-.5.3-1,.7-1.4,1.3v6.4h-2v-9.5l.2.2Z"/>
    <path class="cls-3" d="M233.5,157.8c-.8-.4-1.4-1-1.9-1.7-.5-.8-.7-1.7-.7-2.7s.2-1.9.7-2.7,1.1-1.3,1.9-1.7c.8-.4,1.8-.6,2.8-.6s2.6.3,3.5.8v1.6c-.9-.6-1.9-.9-3.3-.9s-1.9.3-2.6.9c-.7.6-1,1.4-1,2.6s.3,2,1,2.6,1.5.9,2.6.9,2.5-.3,3.4-.9v1.6c-.5.3-1,.5-1.6.7-.6.1-1.3.2-2.1.2s-2-.2-2.8-.6h.1Z"/>
    <path class="cls-3" d="M240.8,146.5c-.2-.2-.3-.5-.3-.8s.1-.6.3-.8.5-.3.8-.3.6.1.9.3c.2.2.3.5.3.8s-.1.6-.3.8-.5.3-.9.3-.6-.1-.8-.3ZM240.6,148.7h2v9.5h-2v-9.5Z"/>
    <path class="cls-3" d="M244.5,157.6c-.7-.6-1-1.4-1-2.4s.3-1.9,1-2.4c.7-.6,1.6-.9,2.8-.9s2.4.3,3.3.8v-.5c0-.7-.2-1.3-.7-1.7s-1.2-.5-2.1-.5-1.1,0-1.7.2-1,.3-1.5.5v-1.6c.4-.2.9-.3,1.5-.4.6-.1,1.2-.2,1.8-.2,1.6,0,2.7.3,3.5,1s1.1,1.6,1.1,2.9v5.9h-1.9v-1.1c-.4.4-.9.8-1.4,1-.6.2-1.2.3-2,.3s-2.1-.3-2.7-.9h0ZM249.4,156.5c.5-.2.9-.6,1.1-1v-1.3c-.9-.6-1.8-.8-2.9-.8s-1.3.1-1.7.4c-.4.3-.6.7-.6,1.3,0,1.2.8,1.7,2.3,1.7s1.2-.1,1.7-.4h0Z"/>
    <path class="cls-3" d="M253.5,143.6h2v14.6h-2v-14.6Z"/>
    <path class="cls-3" d="M262.2,144.4h2v13.8h-2v-13.8Z"/>
    <path class="cls-3" d="M265.2,148.7h1.9v1.4c.4-.6,1-1,1.6-1.3s1.3-.4,2-.4c1.3,0,2.2.3,2.8,1s.9,1.6.9,2.7v6h-2v-5.9c0-1.5-.7-2.3-2.2-2.3s-1.2.1-1.8.4c-.5.3-1,.7-1.4,1.3v6.4h-2v-9.5l.2.2Z"/>
    <path class="cls-3" d="M276.8,158.2c-.7-.2-1.3-.4-1.7-.7v-1.7c.5.3,1.1.5,1.8.7s1.3.3,2,.3,1.2,0,1.6-.3c.3-.2.5-.4.5-.8s0-.5-.2-.7-.4-.3-.8-.5-.9-.3-1.6-.5c-.8-.2-1.4-.4-1.8-.7-.5-.2-.8-.5-1-.9s-.3-.8-.3-1.4c0-.9.4-1.6,1.1-2.1.7-.5,1.7-.7,2.9-.7s1.2,0,1.9.2c.6.1,1.1.3,1.5.5v1.7c-.4-.2-.9-.4-1.4-.5-.6-.1-1.1-.2-1.7-.2s-1.2,0-1.6.3c-.4.2-.6.5-.6.9s0,.5.2.7.4.3.8.4c.3.1.9.3,1.7.5,1.2.3,2,.7,2.5,1.2.5.4.7,1.1.7,1.9s-.3,1.5-1,2-1.7.7-3,.7-1.4,0-2.1-.2h-.4Z"/>
    <path class="cls-3" d="M284.6,157.6c-.5-.6-.8-1.3-.8-2.3v-5h-1.4v-1.5h1.4v-2.8h2v2.8h2.3v1.5h-2.3v4.9c0,.6.1,1.1.4,1.3.2.3.7.4,1.3.4s.8,0,1.1-.3v1.6c-.5.2-1.1.3-1.9.3s-1.7-.3-2.2-.8h.1Z"/>
    <path class="cls-3" d="M289.3,146.5c-.2-.2-.3-.5-.3-.8s.1-.6.3-.8c.2-.2.5-.3.8-.3s.6.1.9.3c.2.2.3.5.3.8s-.1.6-.3.8c-.2.2-.5.3-.9.3s-.6-.1-.8-.3ZM289.1,148.7h2v9.5h-2v-9.5Z"/>
    <path class="cls-3" d="M293.7,157.6c-.5-.6-.8-1.3-.8-2.3v-5h-1.4v-1.5h1.4v-2.8h2v2.8h2.3v1.5h-2.3v4.9c0,.6.1,1.1.4,1.3.2.3.7.4,1.3.4s.8,0,1.1-.3v1.6c-.5.2-1.1.3-1.9.3s-1.7-.3-2.2-.8h.1Z"/>
    <path class="cls-3" d="M298.9,157.4c-.7-.7-1-1.6-1-2.7v-6h2v5.9c0,1.5.8,2.3,2.3,2.3s2.4-.6,3.1-1.8v-6.4h2v9.5h-1.9v-1.3c-.4.6-1,1-1.6,1.2-.6.3-1.3.4-2,.4-1.3,0-2.2-.3-2.9-1h0Z"/>
    <path class="cls-3" d="M309.7,157.6c-.5-.6-.8-1.3-.8-2.3v-5h-1.4v-1.5h1.4v-2.8h2v2.8h2.3v1.5h-2.3v4.9c0,.6.1,1.1.4,1.3.2.3.7.4,1.3.4s.8,0,1.1-.3v1.6c-.5.2-1.1.3-1.9.3s-1.7-.3-2.2-.8h.1Z"/>
    <path class="cls-3" d="M315.1,157.1c-1-.9-1.5-2.1-1.5-3.7s.4-2.8,1.3-3.7,2.2-1.4,3.8-1.4,2,.2,2.8.6,1.3,1,1.7,1.7.6,1.6.6,2.5v1h-8.3c0,.9.4,1.6,1.1,2s1.6.7,2.8.7,1.2,0,1.8-.2c.6-.1,1.2-.3,1.6-.4v1.6c-.4.2-1,.3-1.7.4s-1.4.2-2,.2c-1.7,0-3.1-.4-4.1-1.3h.1ZM322,152.8c0-.9-.3-1.6-.9-2.1s-1.3-.7-2.4-.7-1.8.3-2.3.8c-.6.5-.8,1.2-.9,2h6.5Z"/>
  </g>
  <g class="cls-1">
    <path class="cls-3" d="M41,31.6h-6.4v8.4c3.3,0,5.4,0,7.8-.5l.2,1.5c-2.6.5-4.8.6-8.4.6h-1.4v-11.4h8.2v1.5h0ZM45.9,45.7h-1.8v-17.3h1.8v17.3Z"/>
    <path class="cls-3" d="M57.6,40.5l-1,1.4c-2-.9-3.6-2.8-4.4-5.1-.8,2.5-2.4,4.6-4.4,5.5l-1.1-1.4c2.6-1.2,4.5-4.5,4.5-7.4v-1.8h-3.9v-1.5h9.7v1.5h-3.9v1.8c0,2.9,1.9,5.9,4.5,7ZM61,45.7h-1.8v-17.2h1.8v17.2Z"/>
    <path class="cls-3" d="M70.5,31h-6.1v1.6h5.6v1.4h-5.6v1.7c3,0,4.7,0,6.9-.4l.2,1.5c-2.3.4-4.2.4-7.6.4h-1.3v-7.7h7.9s0,1.5,0,1.5ZM76.1,42.6h-9.4v1.5h10v1.4h-11.8v-4.3h9.4v-1.4h-9.5v-1.4h11.3v4.2ZM76.1,37.7h-1.8v-3.9h-3.1v-1.5h3.1v-3.9h1.8v9.2h0Z"/>
    <path class="cls-3" d="M91.2,38.7h-1.8v-2.1h-4.3v-1.5h4.3v-2.1h-4.2c-1.1,2.8-3.7,4.7-7.4,5.8l-.7-1.4c4.1-1.2,6.5-3.4,6.8-6.1h-5.9v-1.5h7.9c0,.6,0,1.2-.2,1.8h3.7v-3.1h1.8s0,10.2,0,10.2ZM91.3,42.2c0,2.1-2.3,3.4-5.8,3.4s-5.8-1.3-5.8-3.4,2.3-3.4,5.8-3.4,5.8,1.3,5.8,3.4ZM81.5,42.2c0,1.2,1.5,1.9,4,1.9s3.9-.7,4-1.9c0-1.2-1.5-1.9-4-1.9s-4,.7-4,1.9Z"/>
    <path class="cls-3" d="M100.7,40.6l-1.1,1.3c-1.6-1-2.8-2.7-3.4-4.8-.6,2.2-1.8,4.2-3.5,5.2l-1.1-1.4c2.4-1.5,3.7-4.6,3.7-7.7v-1.4h-3.2v-1.5h7.9v1.5h-3v1.4c0,2.9,1.2,5.9,3.6,7.3h0ZM103.2,44.8h-1.7v-8.8h-2.7v-1.5h2.7v-5.7h1.7v16ZM106.7,45.7h-1.7v-17.2h1.7v17.2Z"/>
    <path class="cls-3" d="M120.7,30.6c0,1.4,0,2.9-.4,5h2.4v1.5h-15.8v-1.5h11.5c.5-2,.5-3.5.5-4.8h-10v-1.5h11.8v1.3ZM120.7,45.5h-11.9v-6.2h11.9v6.2ZM110.6,44h8.3v-3.2h-8.3v3.2Z"/>
    <path class="cls-3" d="M137.7,37.9h-3.8v2.2c1.2.5,1.9,1.4,1.9,2.4,0,2-2.2,3.1-5.9,3.1s-6-1.1-6-3.1.7-2,2-2.5v-2.2h-3.8v-1.5h15.7v1.5h0ZM136,32.1c0,2-2.4,3.2-6.2,3.2s-6.2-1.2-6.2-3.2,2.4-3.3,6.2-3.3,6.2,1.2,6.2,3.3ZM125.6,32.1c0,1.2,1.6,1.8,4.3,1.8s4.3-.7,4.3-1.8-1.6-1.8-4.3-1.8-4.3.7-4.3,1.8ZM125.7,42.6c0,1.1,1.5,1.7,4.1,1.7s4.1-.6,4.1-1.7-1.5-1.7-4.1-1.7-4.1.6-4.1,1.7ZM132.1,39.7v-1.8h-4.5v1.7c.7,0,1.4,0,2.2,0s1.6,0,2.3.2Z"/>
    <path class="cls-3" d="M151.4,41.2h-1.8v-4.5h-4.3c-.8,1-2.1,1.6-3.5,1.6-2.6,0-4.5-1.8-4.5-4.3s1.9-4.4,4.5-4.4,2.7.6,3.5,1.6h4.3v-2.6h1.8v12.7h0ZM139,33.9c0,1.6,1.2,2.7,2.8,2.7s2.7-1.1,2.7-2.7-1.2-2.7-2.7-2.7-2.8,1.1-2.8,2.7ZM151.9,45.3h-11.7v-5.5h1.8v4h9.8v1.5h0ZM146.3,33.9c0,.5,0,.9-.2,1.3h3.5v-2.7h-3.5c0,.4.2.9.2,1.3h0Z"/>
    <path class="cls-3" d="M165.8,31.1c0,1.6,0,3.4-.5,5.9h2.5v1.5h-7v7.3h-1.8v-7.3h-6.9v-1.5h11.4c.5-2.5.5-4.3.5-5.9h-10v-1.5h11.8v1.5Z"/>
    <path class="cls-3" d="M178.2,35.8v1.3c-1.4.2-2.9.4-4.4.5v3.4h-1.8v-3.3h-4.7l-.2-1.5c3.2,0,7.5,0,11.2-.5h-.1ZM177,32.2c0,1.8-1.8,3-4.3,3s-4.3-1.2-4.3-3,1.7-3,4.3-3,4.3,1.2,4.3,3ZM181.9,45.3h-12.4v-5.1h1.8v3.6h10.6v1.5h0ZM170.2,32.2c0,1,1,1.7,2.6,1.7s2.5-.6,2.5-1.7-1.1-1.7-2.5-1.7-2.6.6-2.6,1.7ZM181.5,41.5h-1.8v-1.7h-3.5v-1.3h3.5v-10.1h1.8v13.1Z"/>
  </g>
</svg>